<?xml version="1.0" encoding="UTF-8"?>
<svg width="266px" height="266px" viewBox="0 0 266 266" version="1.1" xmlns="http://www.w3.org/2000/svg" xmlns:xlink="http://www.w3.org/1999/xlink">
    <title>Combined Shape</title>
    <g id="HIFID" stroke="none" stroke-width="1" fill="none" fill-rule="evenodd">
        <g id="Splash-Screen" transform="translate(-62.000000, -289.000000)" fill="#FFFFFF">
            <path d="M138.001,474.999 L242.504,475 L271.375591,530.89796 C249.761996,546.084663 223.422142,555 195,555 C140.384613,555 93.4580045,522.080429 72.9801041,475.001217 L138.001,474.999 Z M237.821955,296.044039 C290.26678,313.868551 328,363.527743 328,422 C328,463.385519 309.097426,500.356105 279.454931,524.749104 L229.971,428.942 L200.941,370.882 L237.821955,296.044039 Z M195,289 C206.426918,289 217.517257,290.441061 228.099199,293.151363 L171.549,407.902 L143.001,464.999 L69.1050451,465.001031 C64.4991513,451.512668 62,437.048188 62,422 C62,348.546128 121.546128,289 195,289 Z" id="Combined-Shape"></path>
        </g>
    </g>
</svg>